<?xml version="1.0" encoding="UTF-8"?>
<svg xmlns="http://www.w3.org/2000/svg" xmlns:xlink="http://www.w3.org/1999/xlink" viewBox="0 0 100 100" width="100px" height="100px">
<g id="surface2620643">
<path style=" stroke:none;fill-rule:nonzero;fill:rgb(100%,100%,100%);fill-opacity:1;" d="M 14 4 C 8.398438 4 4 8.398438 4 14 L 4 68 C 4 73.601562 8.398438 78 14 78 L 68 78 C 73.601562 78 78 73.601562 78 68 L 78 19.625 L 74 24 L 74 68 C 74 71.398438 71.398438 74 68 74 L 14 74 C 10.601562 74 8 71.398438 8 68 L 8 14 C 8 10.601562 10.601562 8 14 8 L 66.8125 8 L 70.1875 4.1875 C 69.390625 4.1875 68.796875 4 68 4 Z M 72.5 10.6875 L 37.875 49.1875 L 21.3125 34.5 L 18.6875 37.5 L 36.6875 53.5 L 38.1875 54.8125 L 39.5 53.3125 L 75.5 13.3125 Z M 82 22 L 82 26 L 86 26 C 89.398438 26 92 28.601562 92 32 L 92 86 C 92 89.398438 89.398438 92 86 92 L 32 92 C 28.601562 92 26 89.398438 26 86 L 26 82 L 22 82 L 22 86 C 22 91.601562 26.398438 96 32 96 L 86 96 C 91.601562 96 96 91.601562 96 86 L 96 32 C 96 26.398438 91.601562 22 86 22 Z M 82 22 "/>
</g>
</svg>
