<?xml version="1.0" encoding="UTF-8"?>
<svg xmlns="http://www.w3.org/2000/svg" xmlns:xlink="http://www.w3.org/1999/xlink" viewBox="0 0 100 100" width="100px" height="100px">
<g id="surface2618460">
<path style=" stroke:none;fill-rule:nonzero;fill:rgb(100%,100%,100%);fill-opacity:1;" d="M 41.667969 8.332031 L 37.5 12.5 L 20.832031 12.5 C 18.332031 12.5 16.667969 14.167969 16.667969 16.667969 C 16.667969 19.167969 18.332031 20.832031 20.832031 20.832031 L 79.167969 20.832031 C 81.667969 20.832031 83.332031 19.167969 83.332031 16.667969 C 83.332031 14.167969 81.667969 12.5 79.167969 12.5 L 62.5 12.5 L 58.332031 8.332031 Z M 20.832031 29.167969 L 20.832031 83.332031 C 20.832031 87.917969 24.582031 91.667969 29.167969 91.667969 L 70.832031 91.667969 C 75.417969 91.667969 79.167969 87.917969 79.167969 83.332031 L 79.167969 29.167969 Z M 37.5 37.5 C 40 37.5 41.667969 39.167969 41.667969 41.667969 L 41.667969 79.167969 C 41.667969 81.667969 40 83.332031 37.5 83.332031 C 35 83.332031 33.332031 81.667969 33.332031 79.167969 L 33.332031 41.667969 C 33.332031 39.167969 35 37.5 37.5 37.5 Z M 62.5 37.5 C 65 37.5 66.667969 39.167969 66.667969 41.667969 L 66.667969 79.167969 C 66.667969 81.667969 65 83.332031 62.5 83.332031 C 60 83.332031 58.332031 81.667969 58.332031 79.167969 L 58.332031 41.667969 C 58.332031 39.167969 60 37.5 62.5 37.5 Z M 62.5 37.5 "/>
</g>
</svg>
